<svg width="33" height="34" viewBox="0 0 33 34" fill="none" xmlns="http://www.w3.org/2000/svg">
<g clip-path="url(#clip0_703_81)">
<path d="M17.5 12.5C20.7216 12.5 23.3333 9.88837 23.3333 6.66671C23.3333 3.44505 20.7216 0.833374 17.5 0.833374C14.2783 0.833374 11.6666 3.44505 11.6666 6.66671C11.6666 9.88837 14.2783 12.5 17.5 12.5Z" stroke="#0962E8" stroke-linecap="round" stroke-linejoin="round"/>
<path d="M0.833374 31.6667C0.833374 24.3029 7.54912 18.3334 15.8334 18.3334" stroke="#0962E8" stroke-linecap="round" stroke-linejoin="round"/>
<path d="M24.0417 20.8334C22.2698 20.8334 20.8334 22.5072 20.8334 24.572C20.8334 28.3106 24.625 31.7095 26.6667 32.5C28.7084 31.7095 32.5 28.3106 32.5 24.572C32.5 22.5072 31.0636 20.8334 29.2917 20.8334C28.2066 20.8334 27.2473 21.4611 26.6667 22.4219C26.0861 21.4611 25.1268 20.8334 24.0417 20.8334Z" stroke="#0962E8" stroke-linecap="round" stroke-linejoin="round"/>
</g>
<defs>
<clipPath id="clip0_703_81">
<rect width="33" height="34" fill="white"/>
</clipPath>
</defs>
</svg>
